HIERARCHY
ROOT Hips
{
 OFFSET 0.000000 0.000000 0.000000
 CHANNELS 6 Xposition Yposition Zposition Yrotation Xrotation Zrotation
 JOINT Chest
 {
  OFFSET 0.000000 9.585900 0.002600
  CHANNELS 3 Yrotation Xrotation Zrotation
  JOINT Chest2
  {
   OFFSET 0.000000 9.601200 -0.005300
   CHANNELS 3 Yrotation Xrotation Zrotation
   JOINT Chest3
   {
    OFFSET 0.000000 9.561800 0.000000
    CHANNELS 3 Yrotation Xrotation Zrotation
    JOINT Chest4
    {
     OFFSET 0.000000 9.552100 0.000000
     CHANNELS 3 Yrotation Xrotation Zrotation
     JOINT Neck
     {
      OFFSET 0.000000 14.453000 0.000000
      CHANNELS 3 Yrotation Xrotation Zrotation
      JOINT Head
      {
       OFFSET 0.000000 8.936500 -0.011300
       CHANNELS 3 Yrotation Xrotation Zrotation
       End Site
       {
        OFFSET 0.000000 17.073600 -0.006000
       }
      }
     }
     JOINT RightCollar
     {
      OFFSET -2.921100 9.558500 0.000000
      CHANNELS 3 Yrotation Xrotation Zrotation
      JOINT RightShoulder
      {
       OFFSET -13.519700 0.000000 0.000000
       CHANNELS 3 Yrotation Xrotation Zrotation
       JOINT RightElbow
       {
        OFFSET 0.000000 -29.696600 0.000000
        CHANNELS 3 Yrotation Xrotation Zrotation
        JOINT RightWrist
        {
         OFFSET 0.000000 -24.004700 0.000000
         CHANNELS 3 Yrotation Xrotation Zrotation
         End Site
         {
          OFFSET 0.000000 -17.728500 0.000000
         }
        }
       }
      }
     }
     JOINT LeftCollar
     {
      OFFSET 2.921100 9.558500 0.000000
      CHANNELS 3 Yrotation Xrotation Zrotation
      JOINT LeftShoulder
      {
       OFFSET 13.519700 0.000000 0.000000
       CHANNELS 3 Yrotation Xrotation Zrotation
       JOINT LeftElbow
       {
        OFFSET 0.000000 -29.696600 0.000000
        CHANNELS 3 Yrotation Xrotation Zrotation
        JOINT LeftWrist
        {
         OFFSET 0.000000 -24.004700 0.000000
         CHANNELS 3 Yrotation Xrotation Zrotation
         End Site
         {
          OFFSET 0.000000 -17.728500 0.000000
         }
        }
       }
      }
     }
    }
   }
  }
 }
 JOINT RightHip
 {
  OFFSET -7.771700 -0.012900 -0.001300
  CHANNELS 3 Yrotation Xrotation Zrotation
  JOINT RightKnee
  {
   OFFSET 0.000000 -40.869800 0.001200
   CHANNELS 3 Yrotation Xrotation Zrotation
   JOINT RightAnkle
   {
    OFFSET 0.000000 -39.717900 0.002100
    CHANNELS 3 Yrotation Xrotation Zrotation
    JOINT RightToe
    {
     OFFSET 0.000000 -4.965400 11.033500
     CHANNELS 3 Yrotation Xrotation Zrotation
     End Site
     {
      OFFSET 0.000000 -1.423100 5.872300
     }
    }
   }
  }
 }
 JOINT LeftHip
 {
  OFFSET 7.771700 -0.012900 -0.001300
  CHANNELS 3 Yrotation Xrotation Zrotation
  JOINT LeftKnee
  {
   OFFSET 0.000000 -40.869800 0.001200
   CHANNELS 3 Yrotation Xrotation Zrotation
   JOINT LeftAnkle
   {
    OFFSET 0.000000 -39.717900 0.002100
    CHANNELS 3 Yrotation Xrotation Zrotation
    JOINT LeftToe
    {
     OFFSET 0.000000 -4.965400 11.033500
     CHANNELS 3 Yrotation Xrotation Zrotation
     End Site
     {
      OFFSET 0.000000 -1.423100 5.872300
     }
    }
   }
  }
 }
}
MOTION
Frames: 7
Frame Time: 0.008333
0.000000 85.388000 0.000000 0.000000 -5.767877 0.000000 0.000000 11.653817 0.000000 0.000000 -5.885947 0.000000 0.000000 -0.000000 0.000000 0.000000 -0.000000 0.000000 0.000000 12.528835 0.000000 0.000000 0.711642 0.000000 0.000000 -0.000000 0.000000 0.000000 0.000000 -90.000000 0.000000 -2.309062 0.000000 0.000000 2.309062 0.000000 0.000000 -0.000000 0.000000 0.000000 -0.000000 90.000000 0.000000 -2.309062 0.000000 0.000000 2.309062 0.000000 0.000000 8.520406 0.000000 0.000000 1.905762 0.000000 -0.000000 -4.658285 0.000000 0.000000 -0.000000 0.000000 0.000000 8.520406 0.000000 0.000000 1.905762 0.000000 -0.000000 -4.658285 0.000000 0.000000 -0.000000 0.000000
-209.459593 57.932171 26.760241 171.658451 -50.263948 -0.780563 5.205829 21.113817 5.117089 2.647450 12.187366 2.738518 3.427263 15.163484 3.517149 2.652080 12.148325 2.725487 7.068568 21.662891 2.073580 12.216643 4.510387 1.796148 -0.119892 2.147136 1.104880 2.168850 -18.949878 -8.130088 -27.175178 -48.416195 64.353126 14.158051 8.376716 -18.369498 -14.062687 2.027996 -0.914574 11.051885 -42.192671 8.999470 130.320006 -68.497372 -133.103770 0.859511 -4.876273 19.177181 5.105949 -22.370191 -1.776681 -39.012112 73.551892 -41.863595 5.284743 -12.899637 9.983664 0.112667 -0.144557 0.037886 -4.466330 -20.388146 8.919165 53.715856 78.515108 52.306104 5.674480 -15.218599 -17.738335 -0.009535 0.119912 0.012925
-209.458021 57.933129 26.757826 171.650103 -50.234262 -0.778147 5.203044 21.125978 5.124585 2.664378 12.175907 2.745746 3.448706 15.173554 3.536879 2.660927 12.150679 2.734947 7.042335 21.600545 2.055619 12.267444 4.324266 1.788640 -0.084361 2.130061 1.066591 1.950449 -18.791080 -8.060994 -27.268182 -48.587334 64.517980 14.192023 8.383067 -18.319016 -14.002895 1.972865 -0.922602 11.202692 -42.310084 8.848941 131.042618 -68.361067 -134.122638 0.703795 -4.885579 18.973707 5.110966 -22.398518 -1.787352 -38.998504 73.558836 -41.824514 5.273316 -12.900135 9.972880 0.111012 -0.144629 0.030834 -4.425483 -20.424389 8.906357 53.704568 78.512518 52.331145 5.687337 -15.212344 -17.737487 -0.024659 0.117399 0.006110
-209.457818 57.936070 26.752011 171.655180 -50.216117 -0.774026 5.203984 21.142655 5.133644 2.660253 12.151074 2.734364 3.497039 15.194341 3.575701 2.671979 12.150761 2.746803 7.052981 21.506570 2.060597 12.243568 4.185681 1.771718 -0.108742 2.105203 1.032849 1.824594 -18.625081 -8.010014 -27.366384 -48.753510 64.639697 14.209745 8.375498 -18.272154 -13.990872 1.898856 -0.934031 11.315261 -42.406541 8.735374 131.643456 -68.221499 -134.994416 0.568298 -4.880033 18.796371 5.097141 -22.410761 -1.823637 -38.947334 73.575383 -41.755794 5.296349 -12.909600 9.964744 0.103022 -0.146554 0.015799 -4.396749 -20.448212 8.885413 53.697148 78.513157 52.352401 5.689252 -15.202905 -17.735804 -0.029794 0.106279 0.002752
-209.453634 57.938577 26.745342 171.660655 -50.193167 -0.792129 5.226782 21.147173 5.174555 2.671748 12.151124 2.746504 3.528171 15.188353 3.596273 2.684340 12.149281 2.760051 7.053956 21.414947 2.056607 12.200356 4.051614 1.749981 -0.084199 2.078705 1.001861 1.689465 -18.470489 -7.972790 -27.475975 -48.911182 64.723666 14.207379 8.345230 -18.244902 -14.002707 1.810696 -0.941978 11.337911 -42.474960 8.686015 132.163751 -68.068595 -135.726608 0.449815 -4.858069 18.646555 5.086159 -22.434142 -1.820763 -39.028060 73.583443 -41.793232 5.282438 -12.920566 9.929373 0.155695 -0.148219 0.025427 -4.376069 -20.476996 8.893451 53.746535 78.525008 52.423372 5.698268 -15.210585 -17.726068 -0.044682 0.102339 -0.008437
-209.454097 57.938681 26.737863 171.672773 -50.152758 -0.786451 5.282560 21.147991 5.229464 2.648143 12.132582 2.735908 3.555012 15.179675 3.615911 2.697926 12.145836 2.774182 7.028589 21.338711 2.039281 12.161021 3.910732 1.719684 -0.076219 2.040763 0.977710 1.612944 -18.320180 -7.956769 -27.579735 -49.085053 64.740256 14.187158 8.372506 -18.208321 -14.036795 1.716802 -0.946444 11.259971 -42.515206 8.715277 132.632146 -67.893934 -136.334585 0.342348 -4.818910 18.522495 5.074405 -22.471324 -1.860346 -38.994189 73.600210 -41.751213 5.295707 -12.923326 9.933763 0.138003 -0.155407 0.011788 -4.348388 -20.525071 8.871195 53.739091 78.528724 52.444898 5.688499 -15.204983 -17.719446 -0.032295 0.095728 -0.014019
-209.453386 57.938891 26.728354 171.682797 -50.115720 -0.783982 5.317577 21.131632 5.262325 2.659176 12.132359 2.749850 3.579609 15.164033 3.633308 2.712617 12.139744 2.788740 6.996690 21.267338 2.018154 12.110784 3.778929 1.684756 -0.102781 2.002786 0.961594 1.606086 -18.187175 -7.960807 -27.674294 -49.203235 64.751864 14.185004 8.406975 -18.221516 -14.114328 1.665632 -0.957274 11.098040 -42.574300 8.830623 133.081025 -67.691766 -136.852333 0.248665 -4.756785 18.431869 5.057862 -22.505178 -1.897719 -38.940610 73.621115 -41.691177 5.317007 -12.925830 9.937119 0.115641 -0.163714 -0.002941 -4.319988 -20.569300 8.855234 53.785874 78.535193 52.517602 5.691073 -15.208394 -17.718708 -0.040870 0.091483 -0.015317
